HIERARCHY
ROOT hip
{
	OFFSET 0.000000 0.000000 0.000000 
	CHANNELS 6 Xposition Yposition Zposition Xrotation Zrotation Yrotation
	JOINT abdomen
	{
		OFFSET 0.000000 3.402643 0.000000 
		CHANNELS 3 Xrotation Zrotation Yrotation
		JOINT chest
		{
			OFFSET 0.000000 8.438565 -0.680529 
			CHANNELS 3 Xrotation Zrotation Yrotation
			JOINT neck
			{
				OFFSET 0.000000 10.207942 -0.272212 
				CHANNELS 3 Xrotation Zrotation Yrotation
				JOINT head
				{
					OFFSET 0.000000 3.130431 0.000000 
					CHANNELS 3 Xrotation Zrotation Yrotation
					End Site
					{
						OFFSET 0.000000 3.130435 0.000000 
					}
				}
			}
			JOINT lCollar
			{
				OFFSET 3.470700 6.669187 -0.816635 
				CHANNELS 3 Yrotation Zrotation Xrotation
				JOINT lShldr
				{
					OFFSET 3.198488 0.000000 0.000000 
					CHANNELS 3 Zrotation Yrotation Xrotation
					JOINT lForeArm
					{
						OFFSET 10.139888 0.000000 0.000000 
						CHANNELS 3 Yrotation Zrotation Xrotation
						JOINT lHand
						{
							OFFSET 8.370511 0.000000 0.000000 
							CHANNELS 3 Zrotation Yrotation Xrotation
							End Site
							{
								OFFSET 4.083176 0.000000 0.000000 
							}
						}
					}
				}
			}
			JOINT rCollar
			{
				OFFSET -3.470700 6.669187 -0.816635 
				CHANNELS 3 Yrotation Zrotation Xrotation
				JOINT rShldr
				{
					OFFSET -3.198488 0.000000 0.000000 
					CHANNELS 3 Zrotation Yrotation Xrotation
					JOINT rForeArm
					{
						OFFSET -10.139888 0.000000 0.000000 
						CHANNELS 3 Yrotation Zrotation Xrotation
						JOINT rHand
						{
							OFFSET -8.370511 0.000000 0.000000 
							CHANNELS 3 Zrotation Yrotation Xrotation
							End Site
							{
								OFFSET -4.083176 0.000000 0.000000 
							}
						}
					}
				}
			}
		}
	}
	JOINT lThigh
	{
		OFFSET 5.308129 -1.633274 1.361059 
		CHANNELS 3 Xrotation Zrotation Yrotation
		JOINT lShin
		{
			OFFSET -2.041588 -20.007561 0.000000 
			CHANNELS 3 Xrotation Zrotation Yrotation
			JOINT lFoot
			{
				OFFSET 0.000000 -19.190928 -1.224953 
				CHANNELS 3 Xrotation Yrotation Zrotation
				End Site
				{
					OFFSET 0.000000 -2.449906 4.627600 
				}
			}
		}
	}
	JOINT rThigh
	{
		OFFSET -5.308129 -1.633274 1.361059 
		CHANNELS 3 Xrotation Zrotation Yrotation
		JOINT rShin
		{
			OFFSET 2.041588 -20.007561 0.000000 
			CHANNELS 3 Xrotation Zrotation Yrotation
			JOINT rFoot
			{
				OFFSET 0.000000 -19.190928 -1.224953 
				CHANNELS 3 Xrotation Yrotation Zrotation
				End Site
				{
					OFFSET 0.000000 -2.449906 4.627600 
				}
			}
		}
	}
}
MOTION
Frames: 13
Frame Time: 0.033000
2.166354 44.217941 -19.913713 3.024876 -3.978842 32.231152 21.396381 0.010205 0.192783 -20.839844 0.000000 0.000000 6.130402 4.403655 4.664888 -2.520832 -1.255077 0.218355 -4.754609 -0.109184 -0.002653 -80.343079 -0.999897 37.823471 -6.562327 0.174533 -0.256471 -0.865477 -10.121734 0.222705 4.754609 0.109184 -0.002672 85.214653 3.164816 -5.855660 3.127999 -0.781032 51.401058 -2.198679 11.271264 -0.031006 -3.300528 15.318267 5.298795 11.448039 -4.307333 -4.598229 -2.649834 2.566593 -31.679842 3.453365 -7.474324 -7.339078 -1.889365 3.468836 -8.931221 -4.503752 -0.550421 4.632637 
2.231814 44.186462 -19.606056 3.859529 -4.491785 32.528713 21.318291 -0.024821 0.147552 -20.839844 0.000000 0.000000 5.437068 4.417091 4.203973 -2.520832 -1.255077 0.218355 -4.754609 -0.109184 -0.002653 -78.587982 -2.446103 40.416470 -6.959303 0.138213 -2.546827 -0.447355 -9.214821 0.169554 4.754609 0.109184 -0.002672 85.206238 4.134608 -5.578437 3.139113 -0.787129 52.016327 -1.950620 11.290092 -0.009251 -4.217260 15.353071 4.419270 11.527039 -4.268269 -3.802222 -2.531705 2.515846 -31.647589 2.811023 -7.380119 -6.305409 -1.990203 3.395023 -10.390577 -4.783061 -0.597035 4.828022 
2.350588 44.133659 -19.235451 4.410347 -4.848949 32.858574 21.269491 -0.063365 0.111563 -20.839844 0.000000 0.000000 5.217080 4.162333 4.021234 -2.520832 -1.255077 0.218355 -4.754609 -0.109184 -0.002653 -76.761757 -3.794684 42.376575 -6.962993 0.113616 -4.240823 -0.288467 -8.277576 0.145883 4.754609 0.109184 -0.002672 85.005829 4.930934 -5.741504 3.150342 -0.783459 52.660957 -1.761334 11.201564 0.006729 -4.696341 15.415918 3.895772 11.710068 -4.248106 -3.483306 -2.688735 2.546158 -31.575302 2.654244 -7.251065 -5.732041 -2.069244 3.347537 -11.419708 -5.184721 -0.607465 4.742911 
2.531863 44.055984 -18.775497 4.627320 -5.042191 33.098148 21.259754 -0.121447 0.099447 -20.839844 0.000000 0.000000 5.501618 3.783983 4.166684 -2.520832 -1.255077 0.218355 -4.754609 -0.109184 -0.002653 -75.032364 -4.849848 43.047638 -6.627518 0.092830 -5.209437 -0.207225 -7.487069 0.117733 4.754609 0.109184 -0.002672 84.664055 5.577597 -6.138775 3.151773 -0.794313 52.836670 -1.492277 11.015094 0.030660 -4.578256 15.588232 3.986731 11.984227 -4.236479 -3.814541 -3.210516 2.682244 -31.469687 3.023996 -7.063082 -5.850885 -2.107789 3.338282 -11.558788 -5.770800 -0.609472 4.439487 
2.745604 43.962067 -18.248489 4.893507 -5.234862 33.106327 21.259764 -0.171748 0.121790 -20.839844 0.000000 0.000000 5.748982 3.489965 4.393705 -2.520832 -1.255077 0.218355 -4.754609 -0.109184 -0.002653 -73.425880 -5.644269 42.356361 -6.409839 0.082058 -5.962212 0.136627 -7.262953 0.100051 4.754609 0.109184 -0.002672 84.179260 6.370498 -6.037514 3.129534 -0.792018 51.586533 -1.065544 10.730680 0.058808 -4.314825 15.783573 4.405217 12.260157 -4.237222 -4.263673 -3.872377 2.836457 -31.407433 3.455260 -6.872656 -6.401691 -2.166971 3.366931 -10.977893 -6.361492 -0.590534 4.197473 
2.972532 43.861038 -17.692614 5.514216 -5.550529 32.941246 21.220655 -0.151415 0.150722 -20.839844 0.000000 0.000000 5.517515 3.334904 4.594092 -2.520832 -1.255077 0.218355 -4.754609 -0.109184 -0.002653 -72.156097 -6.344518 41.165718 -6.451986 0.065203 -7.058450 0.664939 -7.741860 0.096448 4.754609 0.109184 -0.002672 83.696793 7.557732 -4.955552 3.092073 -0.756834 48.559032 -0.648831 10.475539 0.089848 -4.344727 15.872924 4.800864 12.476280 -4.249596 -4.495161 -4.417971 2.981080 -31.370232 3.524261 -6.777014 -6.964064 -2.291505 3.403711 -10.206685 -6.827553 -0.604051 4.045950 
3.213133 43.758995 -17.109819 6.313674 -5.969697 32.797264 21.171804 -0.111542 0.155773 -20.839844 0.000000 0.000000 4.954566 3.188281 4.833485 -2.520832 -1.255077 0.218355 -4.754609 -0.109184 -0.002653 -71.417145 -6.892405 40.508293 -6.568192 0.045422 -8.409728 1.186141 -8.338578 0.078957 4.754609 0.109184 -0.002672 83.431290 9.053128 -3.488383 3.033482 -0.735650 44.671940 -0.261964 10.630634 0.126046 -4.589417 15.943540 5.141019 12.663385 -4.230577 -4.643708 -4.796622 3.082336 -31.336245 3.397038 -6.716677 -7.127065 -2.445485 3.421273 -9.905600 -7.202001 -0.625455 4.071536 
3.472593 43.661522 -16.471638 6.977663 -6.427058 32.652065 21.152277 -0.064695 0.142504 -20.839844 0.000000 0.000000 4.433131 3.035284 5.203144 -2.520832 -1.255077 0.218355 -4.754609 -0.109184 -0.002653 -71.022011 -6.999962 40.437347 -6.897254 0.026362 -9.391634 1.627812 -8.573501 0.067989 4.754609 0.109184 -0.002672 83.540054 10.663609 -2.532765 2.995584 -0.714055 41.732277 0.304823 11.615260 0.192204 -4.510016 16.143511 5.576340 12.635123 -4.238348 -4.817518 -5.069763 3.138596 -31.323301 3.355057 -6.555193 -6.608943 -2.503864 3.392052 -10.357761 -7.579476 -0.694616 4.267988 
3.759428 43.559479 -15.767467 7.455505 -6.827113 32.408905 21.142506 -0.046479 0.149550 -20.839844 0.000000 0.000000 4.090242 2.815857 5.733407 -2.520832 -1.255077 0.218355 -4.754609 -0.109184 -0.002653 -70.761055 -6.583072 40.451214 -7.694280 0.028187 -9.615284 2.021234 -8.632753 0.050777 4.754609 0.109184 -0.002672 84.011024 8.358910 -0.818208 10.731265 -0.695171 40.224766 3.401302 10.474287 0.398344 -3.945045 16.433388 6.279947 12.332031 -4.238101 -4.960382 -5.251884 3.185143 -31.307295 3.510511 -6.330368 -5.697407 -2.504540 3.354098 -11.196166 -7.925443 -0.709776 4.553509 
4.092966 43.418846 -15.012540 7.913637 -7.158460 31.995131 21.152250 -0.053428 0.167805 -20.839844 0.000000 0.000000 3.923434 2.555902 6.287775 -2.520832 -1.255077 0.218355 -4.754609 -0.109184 -0.002653 -70.521378 -5.837551 40.020992 -9.080868 0.036568 -9.015605 2.208148 -8.681898 0.041395 4.754609 0.109184 -0.002672 84.146698 3.110636 2.655393 24.045055 -0.858949 41.324543 7.625289 8.233687 -0.071144 -3.310580 16.638910 7.213480 12.289432 -4.238027 -5.006126 -5.549858 3.259467 -31.192459 3.815388 -6.207762 -5.167759 -2.479752 3.348060 -11.506496 -8.178186 -0.780269 4.974061 
4.475736 43.221870 -14.209899 8.313613 -7.489735 31.515343 21.181520 -0.042166 0.193121 -20.839844 0.000000 0.000000 4.038323 2.427348 6.742029 -2.520832 -1.255077 0.218355 -4.754609 -0.109184 -0.002653 -70.183281 -4.922957 39.152267 -10.912011 0.049968 -8.110065 2.041945 -8.759973 0.044169 4.754609 0.109184 -0.002672 84.098106 0.301588 6.490512 32.525440 -1.072788 45.190884 10.131172 9.477634 0.122978 -3.105637 16.891619 7.951658 13.383045 -4.140643 -4.815645 -6.033946 3.327213 -31.061422 4.266715 -6.034248 -5.340272 -2.372260 3.367528 -11.040858 -8.426397 -0.867447 5.580635 
4.890042 42.979713 -13.353972 8.469085 -7.873289 31.037531 21.230303 -0.016186 0.234669 -20.839844 0.000000 0.000000 4.613098 2.384168 7.243089 -2.520832 -1.255077 0.218355 -4.754609 -0.109184 -0.002653 -69.893326 -3.763281 38.507465 -12.735001 0.061590 -7.442009 1.933914 -9.003959 0.052834 4.754609 0.109184 -0.002672 83.800606 -2.325152 11.372637 41.455826 -1.166108 48.515175 13.089709 12.156038 0.901699 -3.779412 17.321989 7.209907 16.392471 -3.965647 -3.684207 -6.860013 3.355509 -30.619482 4.975941 -5.708840 -5.559834 -2.206936 3.397346 -10.405520 -8.833347 -0.952297 6.137008 
5.324093 42.693886 -12.463504 8.506001 -8.220389 30.580238 21.279083 0.018869 0.279824 -20.839844 0.000000 0.000000 5.659841 2.183014 7.975071 -2.520832 -1.255077 0.218355 -4.754609 -0.109184 -0.002653 -69.985878 -2.301836 38.384792 -14.320340 0.068932 -7.177215 2.485918 -9.522595 0.032696 4.754609 0.109184 -0.002672 82.917725 -4.940349 17.818375 51.893517 -1.192198 49.142937 17.192820 15.219603 1.997889 -5.643812 17.486357 3.470979 21.392540 -3.588083 -0.837409 -6.842942 3.241538 -30.475359 5.871846 -5.365746 -5.472908 -2.049665 3.415781 -10.034030 -9.510738 -1.021765 6.381902 
